<?xml version="1.0" encoding="UTF-8" standalone="no"?>
<svg
   width="456"
   height="456"
   viewBox="0 0 456 456"
   version="1.1"
   xml:space="preserve"
   style="fill-rule:evenodd;clip-rule:evenodd;stroke-linejoin:round;stroke-miterlimit:2;"
   id="svg2284"
   sodipodi:docname="appiconfg.svg"
   inkscape:version="1.2.2 (732a01da63, 2022-12-09)"
   xmlns:inkscape="http://www.inkscape.org/namespaces/inkscape"
   xmlns:sodipodi="http://sodipodi.sourceforge.net/DTD/sodipodi-0.dtd"
   xmlns="http://www.w3.org/2000/svg"
   xmlns:svg="http://www.w3.org/2000/svg"><defs
   id="defs2288" /><sodipodi:namedview
   id="namedview2286"
   pagecolor="#ffffff"
   bordercolor="#000000"
   borderopacity="0.25"
   inkscape:showpageshadow="2"
   inkscape:pageopacity="0.0"
   inkscape:pagecheckerboard="0"
   inkscape:deskcolor="#d1d1d1"
   showgrid="false"
   inkscape:zoom="1.8179825"
   inkscape:cx="136.96501"
   inkscape:cy="270.62967"
   inkscape:window-width="1920"
   inkscape:window-height="1009"
   inkscape:window-x="1912"
   inkscape:window-y="-8"
   inkscape:window-maximized="1"
   inkscape:current-layer="svg2284" />
    
    
    
    
<ellipse
   style="fill:#6b9374;fill-opacity:1;stroke:none;stroke-width:3.77953;stroke-opacity:1"
   id="path1094"
   cx="299.20224"
   cy="227.99998"
   rx="15.347063"
   ry="63.063137" /><path
   style="fill:#78b07b;fill-opacity:1;stroke:#153805;stroke-width:5;stroke-linejoin:round;stroke-dasharray:none;stroke-opacity:1"
   d="m 375.08612,277.50011 v -99.00022 h -28.38109 l -54.2007,-33.00008 V 310.5002 l 54.2007,-33.00009 z"
   id="path1040" /><path
   style="fill:#ffffff;fill-opacity:1;stroke:#020000;stroke-width:3;stroke-linecap:butt;stroke-linejoin:round;stroke-dasharray:none;stroke-opacity:1"
   d="m 153.60201,183.22045 v 16.43154 l 13.89192,-1.21795 0.31955,-23.73385 z"
   id="path1269"
   sodipodi:nodetypes="ccccc" /><path
   style="fill:#ffffff;fill-opacity:1;stroke:#020000;stroke-width:3;stroke-linecap:butt;stroke-linejoin:round;stroke-dasharray:none;stroke-opacity:1"
   d="m 139.71012,184.43838 v 16.43156 l 13.89189,-1.21795 0.31956,-23.73387 z"
   id="path1269-1"
   sodipodi:nodetypes="ccccc" /><path
   style="fill:#ffffff;fill-opacity:1;stroke:#020000;stroke-width:3;stroke-linecap:butt;stroke-linejoin:round;stroke-dasharray:none;stroke-opacity:1"
   d="m 125.81821,185.65633 v 16.43153 l 13.89191,-1.21792 0.31955,-23.73386 z"
   id="path1269-1-2"
   sodipodi:nodetypes="ccccc" /><path
   style="fill:#f76967;fill-opacity:1;stroke:#e41616;stroke-width:5;stroke-linejoin:round;stroke-dasharray:none;stroke-opacity:1"
   d="m 140.41237,160.17853 c 27.40111,14.52166 46.97478,2.95244 27.40111,14.52166 l -86.900632,51.36346 c 59.499522,-65.88512 32.098422,-80.4068 59.499522,-65.88512 z"
   id="path1191"
   sodipodi:nodetypes="sscs" /><path
   style="fill:#ffffff;fill-opacity:1;stroke:#020000;stroke-width:3;stroke-linecap:butt;stroke-linejoin:round;stroke-dasharray:none;stroke-opacity:1"
   d="M 153.60201,269.41963 V 252.9881 l 13.89192,1.21795 0.31955,23.73385 z"
   id="path1269-9"
   sodipodi:nodetypes="ccccc" /><path
   style="fill:#ffffff;fill-opacity:1;stroke:#020000;stroke-width:3;stroke-linecap:butt;stroke-linejoin:round;stroke-dasharray:none;stroke-opacity:1"
   d="m 139.71012,268.20168 v -16.43153 l 13.89189,1.21795 0.31956,23.73386 z"
   id="path1269-1-8"
   sodipodi:nodetypes="ccccc" /><path
   style="fill:#ffffff;fill-opacity:1;stroke:#020000;stroke-width:3;stroke-linecap:butt;stroke-linejoin:round;stroke-dasharray:none;stroke-opacity:1"
   d="m 125.81821,266.98376 v -16.43155 l 13.89191,1.21794 0.31955,23.73386 z"
   id="path1269-1-2-2"
   sodipodi:nodetypes="ccccc" /><path
   style="fill:#f76967;fill-opacity:1;stroke:#e41616;stroke-width:5;stroke-linejoin:round;stroke-dasharray:none;stroke-opacity:1"
   d="m 140.41237,292.46155 c 27.40111,-14.52165 46.97478,-2.95244 27.40111,-14.52165 L 80.912848,226.57644 c 59.499522,65.88511 32.098442,80.40677 59.499522,65.88511 z"
   id="path1191-5"
   sodipodi:nodetypes="sscs" /><path
   style="fill:none;fill-opacity:1;stroke:#e41616;stroke-width:5;stroke-linecap:round;stroke-linejoin:round;stroke-dasharray:none;stroke-opacity:1"
   id="path1532"
   sodipodi:type="arc"
   sodipodi:cx="180.60805"
   sodipodi:cy="221.49529"
   sodipodi:rx="12.608625"
   sodipodi:ry="20.80822"
   sodipodi:start="5.0614548"
   sodipodi:end="1.2217305"
   sodipodi:arc-type="arc"
   d="m 184.92045,201.94195 a 12.608625,20.80822 0 0 1 8.29622,19.55334 12.608625,20.80822 0 0 1 -8.29622,19.55333"
   sodipodi:open="true" /><path
   style="fill:none;fill-opacity:1;stroke:#e41616;stroke-width:5;stroke-linecap:round;stroke-linejoin:round;stroke-dasharray:none;stroke-opacity:1"
   id="path1532-8"
   sodipodi:type="arc"
   sodipodi:cx="177.70688"
   sodipodi:cy="221.49529"
   sodipodi:rx="28.007421"
   sodipodi:ry="42.756939"
   sodipodi:start="5.0614548"
   sodipodi:end="1.2217305"
   sodipodi:arc-type="arc"
   d="m 187.28598,181.3169 a 28.007421,42.756939 0 0 1 18.42832,40.17839 28.007421,42.756939 0 0 1 -18.42832,40.17838"
   sodipodi:open="true" /><path
   style="fill:none;fill-opacity:1;stroke:#e41616;stroke-width:5;stroke-linecap:round;stroke-linejoin:round;stroke-dasharray:none;stroke-opacity:1"
   id="path1532-8-0"
   sodipodi:type="arc"
   sodipodi:cx="175.11194"
   sodipodi:cy="221.42021"
   sodipodi:rx="43.374809"
   sodipodi:ry="64.692017"
   sodipodi:start="5.0614548"
   sodipodi:end="1.2217305"
   sodipodi:arc-type="arc"
   d="m 189.947,160.6296 a 43.374809,64.692017 0 0 1 28.53975,60.79061 43.374809,64.692017 0 0 1 -28.53975,60.79061"
   sodipodi:open="true" /><path
   style="fill:none;fill-opacity:1;stroke:#153805;stroke-width:5;stroke-linecap:round;stroke-linejoin:round;stroke-dasharray:none;stroke-opacity:1"
   id="path1532-6"
   sodipodi:type="arc"
   sodipodi:cx="-276.08246"
   sodipodi:cy="221.49529"
   sodipodi:rx="12.608625"
   sodipodi:ry="20.80822"
   sodipodi:start="5.0614548"
   sodipodi:end="1.2217305"
   sodipodi:arc-type="arc"
   d="m -271.77005,201.94195 a 12.608625,20.80822 0 0 1 8.29622,19.55334 12.608625,20.80822 0 0 1 -8.29622,19.55333"
   sodipodi:open="true"
   transform="scale(-1,1)" /><path
   style="fill:none;fill-opacity:1;stroke:#153805;stroke-width:5;stroke-linecap:round;stroke-linejoin:round;stroke-dasharray:none;stroke-opacity:1"
   id="path1532-8-5"
   sodipodi:type="arc"
   sodipodi:cx="-278.98358"
   sodipodi:cy="221.49529"
   sodipodi:rx="28.007421"
   sodipodi:ry="42.756939"
   sodipodi:start="5.0614548"
   sodipodi:end="1.2217305"
   sodipodi:arc-type="arc"
   d="m -269.40448,181.3169 a 28.007421,42.756939 0 0 1 18.42832,40.17839 28.007421,42.756939 0 0 1 -18.42832,40.17838"
   sodipodi:open="true"
   transform="scale(-1,1)" /><path
   style="fill:none;fill-opacity:1;stroke:#153805;stroke-width:5;stroke-linecap:round;stroke-linejoin:round;stroke-dasharray:none;stroke-opacity:1"
   id="path1532-8-0-2"
   sodipodi:type="arc"
   sodipodi:cx="-281.57861"
   sodipodi:cy="221.42021"
   sodipodi:rx="43.374809"
   sodipodi:ry="64.692017"
   sodipodi:start="5.0614548"
   sodipodi:end="1.2217305"
   sodipodi:arc-type="arc"
   d="m -266.74356,160.6296 a 43.374809,64.692017 0 0 1 28.53976,60.79061 43.374809,64.692017 0 0 1 -28.53976,60.79061"
   sodipodi:open="true"
   transform="scale(-1,1)" /></svg>
