<?xml version="1.0" encoding="UTF-8" standalone="no"?>
<svg
   width="456"
   height="456"
   viewBox="0 0 456 456"
   version="1.1"
   xml:space="preserve"
   style="fill-rule:evenodd;clip-rule:evenodd;stroke-linejoin:round;stroke-miterlimit:2;"
   id="svg2284"
   sodipodi:docname="appiconfg.svg"
   inkscape:version="1.2.2 (732a01da63, 2022-12-09)"
   xmlns:inkscape="http://www.inkscape.org/namespaces/inkscape"
   xmlns:sodipodi="http://sodipodi.sourceforge.net/DTD/sodipodi-0.dtd"
   xmlns="http://www.w3.org/2000/svg"
   xmlns:svg="http://www.w3.org/2000/svg"><defs
   id="defs2288" /><sodipodi:namedview
   id="namedview2286"
   pagecolor="#ffffff"
   bordercolor="#000000"
   borderopacity="0.25"
   inkscape:showpageshadow="2"
   inkscape:pageopacity="0.0"
   inkscape:pagecheckerboard="0"
   inkscape:deskcolor="#d1d1d1"
   showgrid="false"
   inkscape:zoom="1.8179825"
   inkscape:cx="40.154402"
   inkscape:cy="238.72617"
   inkscape:window-width="1920"
   inkscape:window-height="1009"
   inkscape:window-x="1912"
   inkscape:window-y="-8"
   inkscape:window-maximized="1"
   inkscape:current-layer="svg2284" />
    
    
    
    
<ellipse
   style="fill:#6b9374;fill-opacity:1;stroke:none;stroke-width:3.77953;stroke-opacity:1"
   id="path1094"
   cx="299.20224"
   cy="227.99998"
   rx="15.347063"
   ry="55.41914" /><path
   style="fill:#78b07b;fill-opacity:1;stroke:#153805;stroke-width:5;stroke-linejoin:round;stroke-dasharray:none;stroke-opacity:1"
   d="m 375.08612,271.50011 v -87.00022 h -28.38109 l -54.2007,-29.00008 V 300.5002 l 54.2007,-29.00009 z"
   id="path1040" /><path
   style="fill:none;fill-opacity:1;stroke:#e41616;stroke-width:5;stroke-linecap:round;stroke-linejoin:round;stroke-dasharray:none;stroke-opacity:1"
   id="path1532"
   sodipodi:type="arc"
   sodipodi:cx="180.60805"
   sodipodi:cy="228.07507"
   sodipodi:rx="12.608625"
   sodipodi:ry="20.80822"
   sodipodi:start="5.0614548"
   sodipodi:end="1.2217305"
   sodipodi:arc-type="arc"
   d="m 184.92045,208.52174 a 12.608625,20.80822 0 0 1 8.29622,19.55333 12.608625,20.80822 0 0 1 -8.29622,19.55333"
   sodipodi:open="true" /><path
   style="fill:none;fill-opacity:1;stroke:#e41616;stroke-width:5;stroke-linecap:round;stroke-linejoin:round;stroke-dasharray:none;stroke-opacity:1"
   id="path1532-8"
   sodipodi:type="arc"
   sodipodi:cx="177.70688"
   sodipodi:cy="228.07507"
   sodipodi:rx="28.007421"
   sodipodi:ry="42.756939"
   sodipodi:start="5.0614548"
   sodipodi:end="1.2217305"
   sodipodi:arc-type="arc"
   d="m 187.28598,187.89669 a 28.007421,42.756939 0 0 1 18.42832,40.17838 28.007421,42.756939 0 0 1 -18.42832,40.17838"
   sodipodi:open="true" /><path
   style="fill:none;fill-opacity:1;stroke:#e41616;stroke-width:5;stroke-linecap:round;stroke-linejoin:round;stroke-dasharray:none;stroke-opacity:1"
   id="path1532-8-0"
   sodipodi:type="arc"
   sodipodi:cx="175.11194"
   sodipodi:cy="228"
   sodipodi:rx="43.374809"
   sodipodi:ry="64.692017"
   sodipodi:start="5.0614548"
   sodipodi:end="1.2217305"
   sodipodi:arc-type="arc"
   d="M 189.947,167.20939 A 43.374809,64.692017 0 0 1 218.48675,228 43.374809,64.692017 0 0 1 189.947,288.79061"
   sodipodi:open="true" /><path
   style="fill:none;fill-opacity:1;stroke:#153805;stroke-width:5;stroke-linecap:round;stroke-linejoin:round;stroke-dasharray:none;stroke-opacity:1"
   id="path1532-6"
   sodipodi:type="arc"
   sodipodi:cx="-276.08246"
   sodipodi:cy="228.07507"
   sodipodi:rx="12.608625"
   sodipodi:ry="20.80822"
   sodipodi:start="5.0614548"
   sodipodi:end="1.2217305"
   sodipodi:arc-type="arc"
   d="m -271.77005,208.52174 a 12.608625,20.80822 0 0 1 8.29622,19.55333 12.608625,20.80822 0 0 1 -8.29622,19.55333"
   sodipodi:open="true"
   transform="scale(-1,1)" /><path
   style="fill:none;fill-opacity:1;stroke:#153805;stroke-width:5;stroke-linecap:round;stroke-linejoin:round;stroke-dasharray:none;stroke-opacity:1"
   id="path1532-8-5"
   sodipodi:type="arc"
   sodipodi:cx="-278.98358"
   sodipodi:cy="228.07507"
   sodipodi:rx="28.007421"
   sodipodi:ry="42.756939"
   sodipodi:start="5.0614548"
   sodipodi:end="1.2217305"
   sodipodi:arc-type="arc"
   d="m -269.40448,187.89669 a 28.007421,42.756939 0 0 1 18.42832,40.17838 28.007421,42.756939 0 0 1 -18.42832,40.17838"
   sodipodi:open="true"
   transform="scale(-1,1)" /><path
   style="fill:none;fill-opacity:1;stroke:#153805;stroke-width:5;stroke-linecap:round;stroke-linejoin:round;stroke-dasharray:none;stroke-opacity:1"
   id="path1532-8-0-2"
   sodipodi:type="arc"
   sodipodi:cx="-281.57861"
   sodipodi:cy="228"
   sodipodi:rx="43.374809"
   sodipodi:ry="64.692017"
   sodipodi:start="5.0614548"
   sodipodi:end="1.2217305"
   sodipodi:arc-type="arc"
   d="M -266.74356,167.20939 A 43.374809,64.692017 0 0 1 -238.2038,228 a 43.374809,64.692017 0 0 1 -28.53976,60.79061"
   sodipodi:open="true"
   transform="scale(-1,1)" /><path
   style="clip-rule:evenodd;fill:#f76967;fill-opacity:1;fill-rule:evenodd;stroke:none;stroke-width:1;stroke-linecap:round;stroke-linejoin:round;stroke-miterlimit:2;stroke-dasharray:none;stroke-opacity:0.968627"
   d="M 129.44433,108.84821 H 80.658623 l -0.423572,180.38218 39.730829,1.06251 9.47845,-33.85164 13.54065,-6.77034 -47.39227,-23.0191 67.70324,-21.66501 -2.70813,-13.54065 -17.60284,-16.24879 33.85162,-1.35406 z"
   id="path1539"
   sodipodi:nodetypes="cccccccccccc" /><path
   style="fill:none;fill-opacity:1;stroke:#dd1515;stroke-width:5;stroke-linecap:round;stroke-linejoin:round;stroke-dasharray:none;stroke-opacity:1"
   d="m 129.44433,108.84821 47.39227,64.9951 -33.85162,1.35406 17.60284,16.24879 2.70813,13.54065 -67.703241,21.66501 47.392271,23.0191 -13.54065,6.77034 -9.47845,33.85164 v 0"
   id="path426-4" /></svg>
